<?xml version="1.0" encoding="utf-8"?>
<!-- Generator: Adobe Illustrator 21.0.0, SVG Export Plug-In . SVG Version: 6.00 Build 0)  -->
<svg version="1.1" id="Layer_1" xmlns="http://www.w3.org/2000/svg" xmlns:xlink="http://www.w3.org/1999/xlink" x="0px" y="0px"
	 viewBox="0 0 69.7 49.5" style="enable-background:new 0 0 69.7 49.5;" xml:space="preserve">
<style type="text/css">
	.st0{fill:#F85068;}
	.st1{fill:#7C397F;}
</style>
<g>
	<g>
		<path class="st0" d="M34.8,44c-1.2,0-2.4-0.3-3.4-0.9l-10.7-6.2c-2.1-1.2-3.4-3.5-3.4-5.9V18.6c0-2.4,1.3-4.7,3.4-5.9l10.7-6.2
			c1-0.6,2.2-0.9,3.4-0.9s2.4,0.3,3.4,0.9l10.7,6.2c2.1,1.2,3.4,3.5,3.4,5.9V31c0,2.4-1.3,4.7-3.4,5.9l-10.7,6.2
			C37.2,43.7,36,44,34.8,44z"/>
	</g>
	<g>
		<path class="st1" d="M34.8,45.5c-1.5,0-2.9-0.4-4.2-1.1l-10.7-6.2c-2.6-1.5-4.2-4.3-4.2-7.2V18.6c0-3,1.6-5.7,4.2-7.2l10.7-6.2
			c2.5-1.5,5.8-1.5,8.4,0l10.7,6.2c2.6,1.5,4.2,4.3,4.2,7.2V31c0,3-1.6,5.7-4.2,7.2L39,44.4C37.7,45.2,36.3,45.5,34.8,45.5z M34.8,7
			c-0.9,0-1.9,0.2-2.7,0.7l-10.7,6.2c-1.7,1-2.7,2.7-2.7,4.6v12.4c0,1.9,1,3.7,2.7,4.6l10.7,6.2c1.6,0.9,3.7,0.9,5.4,0l10.7-6.2
			c1.7-1,2.7-2.7,2.7-4.6V18.5c0-1.9-1-3.7-2.7-4.6L37.5,7.7C36.7,7.3,35.7,7,34.8,7z"/>
	</g>
	<g>
		<path class="st1" d="M6.4,42.3c-0.5,0-1-0.3-1.3-0.8c-0.4-0.7-0.2-1.6,0.5-2l10.3-5.9c0.7-0.4,1.6-0.2,2,0.5s0.2,1.6-0.5,2L7.1,42
			C6.9,42.2,6.7,42.3,6.4,42.3z"/>
	</g>
	<g>
		<path class="st1" d="M52.4,15.7c-0.5,0-1-0.3-1.3-0.8c-0.4-0.7-0.2-1.6,0.5-2l10.9-6.3c0.7-0.4,1.6-0.2,2,0.5s0.2,1.6-0.5,2
			l-10.9,6.3C52.9,15.7,52.7,15.7,52.4,15.7z"/>
	</g>
</g>
</svg>
