<svg xmlns="http://www.w3.org/2000/svg" xmlns:xlink="http://www.w3.org/1999/xlink" viewBox="0 0 77.54 53.8"><defs><style>.cls-1{stroke:#fff;stroke-miterlimit:10;stroke-width:0.25px;fill:url(#linear-gradient);}</style><linearGradient id="linear-gradient" x1="8.69" y1="56.88" x2="69.33" y2="-3.75" gradientUnits="userSpaceOnUse"><stop offset="0" stop-color="#e63359"/><stop offset="0.62" stop-color="#f04362"/><stop offset="1" stop-color="#f85068"/></linearGradient></defs><title>Asset 1</title><g id="Layer_2" data-name="Layer 2"><g id="Layer_1-2" data-name="Layer 1"><path class="cls-1" d="M77.15,4.17a2,2,0,0,0-2.73-.73l-14,8.09a10.74,10.74,0,0,0-2.48-2l-13.83-8a11,11,0,0,0-10.82,0l-13.83,8A10.85,10.85,0,0,0,14,18.9v16A10.74,10.74,0,0,0,14.54,38l-.2.09L1.13,45.75a2,2,0,0,0,2,3.46l13.22-7.63,0,0a10.78,10.78,0,0,0,3.08,2.68l13.83,8a10.82,10.82,0,0,0,10.82,0l13.83-8a10.85,10.85,0,0,0,5.41-9.37v-16a10.78,10.78,0,0,0-.78-4l13.86-8A2,2,0,0,0,77.15,4.17ZM59.34,34.87a6.84,6.84,0,0,1-3.41,5.91l-13.82,8a6.94,6.94,0,0,1-6.82,0l-13.83-8A6.84,6.84,0,0,1,18,34.87v-16A6.84,6.84,0,0,1,21.46,13L35.28,5A6.82,6.82,0,0,1,42.1,5l13.83,8a6.84,6.84,0,0,1,3.41,5.91Z"/></g></g></svg>