<svg xmlns="http://www.w3.org/2000/svg" viewBox="0 0 106.31 118.57"><defs><style>.cls-1{fill:#fff;}</style></defs><title>Asset 1</title><g id="Layer_2" data-name="Layer 2"><g id="Layer_1-2" data-name="Layer 1"><path class="cls-1" d="M95.77,40.71,32.71,3.09a21.39,21.39,0,0,0-21.76-.23A21.39,21.39,0,0,0,0,21.67V96.9a21.39,21.39,0,0,0,10.95,18.81,21.39,21.39,0,0,0,21.76-.23L95.77,77.86a21.63,21.63,0,0,0,0-37.15Zm-2,33.72L30.66,112A17.63,17.63,0,0,1,4,96.9V21.67A17.44,17.44,0,0,1,12.92,6.34a17.44,17.44,0,0,1,17.74.19L93.72,44.14a17.63,17.63,0,0,1,0,30.28Z"/></g></g></svg>